:SAMPLES-PER-SECOND 24
:FULLY-SPECIFIED
:DEGREES
693
root  3.77559 38.6808 9.78857 126.083 25.8409 145.119
RightUpLeg  14.6845 -3.73715 -27.33
RightLeg  32.4962 4.83945 3.06182
RightFoot  -9.20467 0.212008 -14.3829
RightToes  -1.74623e-010 0 -2.59999e-017
Spine  5.98363 2.36521 1.90337
Spine1  23.7164 11.3343 -20.9139
HEad  31.1887 33.4877 -0.292375
LeftShoulder1  2.28952 -3.20998 -28.0267
LeftArm  -30.1061 5.6933 -15.769
LeftForeArm  157.414 -52.8211 -165.801
LeftHand  -0.0803859 5.00115 22.5788
RightShoulder  3.29794 5.79535 29.5475
RightArm  18.1912 19.3754 57.4482
RightForeArm  157.938 66.7491 155.854
RightHand  -0.117734 -1.66818 -2.86216
LeftUpLeg  -56.8996 27.253 9.7185
LeftLeg  88.8887 -0.185657 -3.77649
LeftFoot  35.334 5.30573 -12.7932
LeftToes  -6.27559e-011 -2.10356e-011 8.24929e-012
694
root  3.92523 38.9779 10.2542 134.576 25.1447 153.769
RightUpLeg  13.1761 -8.51571 -20.4545
RightLeg  30.7289 5.02666 2.97318
RightFoot  -4.89239 0.707457 -13.1849
RightToes  -1.74623e-010 0 -2.59999e-017
Spine  3.84086 1.38819 3.82828
Spine1  23.1645 9.04786 -16.0513
HEad  28.721 30.3157 0.141921
LeftShoulder1  2.2239 -3.22261 -26.9558
LeftArm  -26.736 2.01823 -17.0789
LeftForeArm  157.997 -54.0784 -165.225
LeftHand  -0.0451548 5.18182 22.2847
RightShoulder  3.28119 5.72112 29.6548
RightArm  16.1944 17.3552 54.8095
RightForeArm  157.542 66.1393 156.463
RightHand  -0.10958 -2.41498 -3.64448
LeftUpLeg  -49.933 24.3436 6.9857
LeftLeg  99.2442 0.717183 -5.045
LeftFoot  35.9863 4.96363 -11.8283
LeftToes  -6.27559e-011 -2.10356e-011 8.24929e-012
695
root  3.9743 39.0686 11.0824 143.054 22.978 160.85
RightUpLeg  7.47849 -7.46612 -13.0345
RightLeg  31.5964 6.39435 3.98341
RightFoot  -1.13697 0.619307 -7.14026
RightToes  -1.74623e-010 0 -2.59999e-017
Spine  1.84046 0.41449 4.04942
Spine1  22.2209 6.6776 -12.641
HEad  26.2961 27.8801 -0.222297
LeftShoulder1  2.1705 -3.26227 -25.9375
LeftArm  -23.4943 -2.52394 -20.1084
LeftForeArm  158.288 -55.6034 -164.447
LeftHand  -0.0315821 5.25293 22.1862
RightShoulder  3.23436 5.59365 29.64
RightArm  13.3647 15.2855 51.2427
RightForeArm  157.685 65.3864 157.246
RightHand  -0.0998057 -2.7144 -3.78724
LeftUpLeg  -41.5103 21.7392 4.21495
LeftLeg  102.127 0.856499 -4.52182
LeftFoot  35.2861 5.03296 -12.191
LeftToes  -6.27559e-011 -2.10356e-011 8.24929e-012
696
root  3.94914 38.8409 11.8265 151.053 20.2323 165.855
RightUpLeg  1.1465 -5.51093 -7.50258
RightLeg  31.4985 7.46836 4.66866
RightFoot  -1.5201 0.274162 -3.30806
RightToes  -1.74623e-010 0 -2.59999e-017
Spine  0.329809 -0.568157 2.56237
Spine1  19.1129 3.63908 -8.46984
HEad  23.2339 26.7625 -1.70765
LeftShoulder1  2.0702 -3.25424 -24.4268
LeftArm  -20.867 -4.78786 -24.6302
LeftForeArm  158.713 -56.1749 -164.168
LeftHand  -0.103753 4.87056 21.9457
RightShoulder  3.0561 5.40278 28.368
RightArm  10.414 12.5405 48.3206
RightForeArm  157.653 63.9458 158.592
RightHand  -0.0829486 -3.36609 -3.85174
LeftUpLeg  -32.7675 19.6586 1.83203
LeftLeg  101.031 0.440682 -3.10598
LeftFoot  31.0503 3.81797 -10.3374
LeftToes  -6.27559e-011 -2.10356e-011 8.24929e-012
697
root  3.87824 38.5263 12.6124 158.193 17.0188 170.86
RightUpLeg  -3.45164 -8.5911 -2.0476
RightLeg  27.7646 5.10435 2.68372
RightFoot  -1.8612 0.529919 -6.45947
RightToes  -1.74623e-010 0 -2.59999e-017
Spine  -1.1483 -2.24311 1.74035
Spine1  17.0734 0.192235 -3.39949
HEad  17.9898 26.6058 -4.07656
LeftShoulder1  1.89069 -3.05775 -22.506
LeftArm  -20.193 -6.8278 -28.9524
LeftForeArm  159.448 -55.865 -164.4
LeftHand  -0.173022 4.48599 21.4462
RightShoulder  2.81188 5.15073 26.4815
RightArm  7.7706 11.4721 46.1966
RightForeArm  155.291 62.726 159.402
RightHand  -0.0830208 -4.09333 -5.76331
LeftUpLeg  -23.316 17.6698 2.14532
LeftLeg  95.7747 -0.216131 -0.299667
LeftFoot  24.4611 2.18714 -7.26551
LeftToes  -6.27559e-011 -2.10356e-011 8.24929e-012
